<mxfile host="app.diagrams.net" modified="2024-06-01T17:12:26.163Z" agent="Mozilla/5.0 (Windows NT 10.0; Win64; x64) AppleWebKit/537.36 (KHTML, like Gecko) Chrome/125.0.0.0 Safari/537.36" version="24.4.13" etag="2gzlUUb70eG9ppj6259e" type="github">
  <diagram name="Страница — 1" id="Xl9pXXPH7KZEJr5y2Tqe">
    <mxGraphModel>
      <root>
        <mxCell id="0" />
        <mxCell id="1" parent="0" />
      </root>
    </mxGraphModel>
  </diagram>
</mxfile>
